<!DOCTYPE svg PUBLIC "-//W3C//DTD SVG 1.1//EN" "http://www.w3.org/Graphics/SVG/1.1/DTD/svg11.dtd">
<!-- Uploaded to: SVG Repo, www.svgrepo.com, Transformed by: SVG Repo Mixer Tools -->
<svg fill="#10004F" height="800px" width="800px" version="1.1" id="Layer_1" xmlns="http://www.w3.org/2000/svg" xmlns:xlink="http://www.w3.org/1999/xlink" viewBox="0 0 490.667 490.667" xml:space="preserve" stroke="#10004F">
<g id="SVGRepo_bgCarrier" stroke-width="0"/>
<g id="SVGRepo_tracerCarrier" stroke-linecap="round" stroke-linejoin="round"/>
<g id="SVGRepo_iconCarrier"> <g> <g> <path d="M355.52,117.333h-72.853v-96h32c5.867,0,10.667-4.8,10.667-10.667C325.333,4.8,320.533,0,314.667,0H175.999 c-5.867,0-10.667,4.8-10.667,10.667s4.8,10.667,10.667,10.667h32v96h-72.853c-24.533,0-44.48,19.947-44.48,44.48V435.52 c0,24.533,19.947,44.48,44.48,44.48h8.853c0,5.867,4.8,10.667,10.667,10.667s10.667-4.8,10.667-10.667h160 c0,5.867,4.8,10.667,10.667,10.667s10.667-4.8,10.667-10.667h8.853c24.533,0,44.48-19.947,44.48-44.48V161.813 C400,137.28,380.053,117.333,355.52,117.333z M229.333,21.333h32v96h-32V21.333z M378.667,435.52 c0,12.8-10.347,23.147-23.147,23.147H135.147c-12.8,0-23.147-10.347-23.147-23.147V161.813c0-12.8,10.347-23.147,23.147-23.147 H355.52c12.8,0,23.147,10.347,23.147,23.147V435.52z"/> </g> </g> <g> <g> <path d="M304,170.666H186.666c-5.867,0-10.667,4.8-10.667,10.667S180.799,192,186.666,192H304c5.867,0,10.667-4.8,10.667-10.667 S309.867,170.666,304,170.666z"/> </g> </g> <g> <g> <path d="M336,288H154.666c-5.867,0-10.667,4.8-10.667,10.667V380.8c0,16.64,13.12,35.2,31.893,35.2h135.36 c18.24,0,35.413-21.653,35.413-38.507v-78.827C346.667,292.8,341.867,288,336,288z M325.333,377.493 c0,6.933-9.28,17.173-14.08,17.173h-135.36c-5.013,0-10.56-7.253-10.56-13.867v-71.467h160V377.493z"/> </g> </g> </g>
</svg>